<?xml version="1.0" ?><svg enable-background="new 0 0 32 32" id="Filled_Outline" version="1.1" viewBox="0 0 32 32" xml:space="preserve" xmlns="http://www.w3.org/2000/svg" xmlns:xlink="http://www.w3.org/1999/xlink"><title/><desc/><g><g><polygon fill="#FFF3AE" points="22,3 21,5 19,6 21,7 22,9 23,7 25,6 23,5   "/><path d="M25,22c0,5.055-4.168,9.137-9.255,8.996c-4.696-0.13-8.611-4.045-8.741-8.741    C6.863,17.168,10.945,13,16,13v3c0,3.314,2.686,6,6,6H25z" fill="#FFF3AE"/></g><g><path d="M22,10c-0.379,0-0.725-0.214-0.895-0.553l-0.851-1.702l-1.702-0.851C18.214,6.725,18,6.379,18,6    s0.214-0.725,0.553-0.895l1.702-0.851l0.851-1.702c0.339-0.678,1.45-0.678,1.789,0l0.851,1.702l1.702,0.851    C25.786,5.275,26,5.621,26,6s-0.214,0.725-0.553,0.895l-1.702,0.851l-0.851,1.702C22.725,9.786,22.379,10,22,10z M21.236,6    l0.211,0.105c0.193,0.097,0.351,0.254,0.447,0.447L22,6.764l0.105-0.211c0.097-0.193,0.254-0.351,0.447-0.447L22.764,6    l-0.211-0.105c-0.193-0.097-0.351-0.254-0.447-0.447L22,5.236l-0.105,0.211c-0.097,0.193-0.254,0.351-0.447,0.447L21.236,6z" fill="#1A1A1A"/><path d="M16.003,32c-0.095,0-0.19-0.001-0.286-0.004c-5.211-0.144-9.569-4.501-9.713-9.713    c-0.076-2.727,0.929-5.303,2.828-7.255C10.73,13.075,13.276,12,16,12c0.552,0,1,0.448,1,1v3c0,2.757,2.243,5,5,5h3    c0.552,0,1,0.448,1,1c0,2.724-1.075,5.27-3.028,7.168C21.088,31.001,18.623,32,16.003,32z M15,14.061    c-1.797,0.222-3.451,1.041-4.735,2.361c-1.519,1.562-2.322,3.623-2.262,5.805c0.115,4.169,3.601,7.654,7.77,7.77    c2.193,0.057,4.244-0.744,5.805-2.262c1.32-1.284,2.139-2.938,2.361-4.735H22c-3.86,0-7-3.14-7-7V14.061z" fill="#1A1A1A"/></g></g></svg>