<?xml version="1.0" ?><svg enable-background="new 0 0 32 32" id="Filled_Outline" version="1.1" viewBox="0 0 32 32" xml:space="preserve" xmlns="http://www.w3.org/2000/svg" xmlns:xlink="http://www.w3.org/1999/xlink"><title/><desc/><g><g><polygon fill="#C9F9FB" points="15,9 9,9 4,12 1,17 1,23 4,28 9,31 15,31 20,28 23,23 23,17 20,12   "/><circle cx="12" cy="20" fill="#7CA7C6" r="7"/></g><g><path d="M15,32H9c-0.181,0-0.359-0.049-0.515-0.143l-5-3c-0.141-0.084-0.258-0.202-0.343-0.343l-3-5    C0.049,23.359,0,23.182,0,23v-6c0-0.182,0.049-0.359,0.143-0.515l3-5c0.084-0.141,0.202-0.259,0.343-0.343l5-3    C8.641,8.049,8.819,8,9,8h6c0.181,0,0.359,0.049,0.515,0.143l5,3c0.141,0.084,0.259,0.202,0.343,0.343l3,5    C23.951,16.641,24,16.818,24,17v6c0,0.182-0.049,0.359-0.143,0.515l-3,5c-0.084,0.141-0.202,0.259-0.343,0.343l-5,3    C15.359,31.951,15.181,32,15,32z M9.277,30h5.446l4.548-2.729L22,22.723v-5.445l-2.729-4.549L14.723,10H9.277l-4.548,2.729    L2,17.277v5.445l2.729,4.549L9.277,30z" fill="#1A1A1A"/><path d="M12,28c-4.411,0-8-3.589-8-8s3.589-8,8-8s8,3.589,8,8S16.411,28,12,28z M12,14c-3.309,0-6,2.691-6,6    s2.691,6,6,6s6-2.691,6-6S15.309,14,12,14z" fill="#1A1A1A"/><rect fill="#1A1A1A" height="2" transform="matrix(0.7071 -0.7071 0.7071 0.7071 2.8726 19.935)" width="7.071" x="21.964" y="5.5"/><rect fill="#1A1A1A" height="2" transform="matrix(0.7071 -0.7071 0.7071 0.7071 7.6226 21.9025)" width="2.121" x="29.189" y="0.75"/><rect fill="#1A1A1A" height="2" transform="matrix(0.7071 -0.7071 0.7071 0.7071 2.5723 15.7102)" width="6.364" x="17.068" y="3.75"/><rect fill="#1A1A1A" height="2" transform="matrix(0.7071 -0.7071 0.7071 0.7071 -0.3272 22.7102)" width="6.364" x="24.068" y="10.75"/><rect fill="#1A1A1A" height="2" transform="matrix(0.7071 -0.7071 0.7071 0.7071 0.2721 10.6569)" width="2.828" x="11.586" y="4"/><rect fill="#1A1A1A" height="2" transform="matrix(0.7071 -0.7071 0.7071 0.7071 3.5221 12.003)" width="2.121" x="15.189" y="0.75"/><rect fill="#1A1A1A" height="2" transform="matrix(0.7071 -0.7071 0.7071 0.7071 -6.234 24.9497)" width="2.828" x="25.586" y="19"/><rect fill="#1A1A1A" height="2" transform="matrix(0.7071 -0.7071 0.7071 0.7071 -2.984 26.2959)" width="2.121" x="29.189" y="15.75"/></g></g></svg>