<?xml version="1.0" ?><svg enable-background="new 0 0 32 32" id="Filled_Outline" version="1.1" viewBox="0 0 32 32" xml:space="preserve" xmlns="http://www.w3.org/2000/svg" xmlns:xlink="http://www.w3.org/1999/xlink"><title/><desc/><g><g><path d="M6,19c-2.76,0-5-2.24-5-5s2.24-5,5-5c0-4.42,3.58-8,8-8c3.75,0,6.89,2.57,7.76,6.05    C24.71,7.42,27,9.95,27,13c0,3.31-2.69,6-6,6H6z" fill="#7CA7C6"/><path d="M15,21c-2.21,0-4-1.79-4-4s1.79-4,4-4c0-3.31,2.69-6,6-6c2.63,0,4.87,1.7,5.67,4.05    C29.11,11.37,31,13.47,31,16c0,2.76-2.24,5-5,5H15z" fill="#7CA7C6"/></g><g><rect fill="#1A1A1A" height="2" transform="matrix(0.4999 -0.8661 0.8661 0.4999 -23.4817 17.6005)" width="2" x="2.5" y="28.134"/><rect fill="#1A1A1A" height="2" transform="matrix(0.4999 -0.8661 0.8661 0.4999 -19.4816 17.6004)" width="2" x="4.5" y="24.67"/><rect fill="#1A1A1A" height="2" transform="matrix(0.4999 -0.8661 0.8661 0.4999 -15.4814 17.6003)" width="2" x="6.5" y="21.206"/><rect fill="#1A1A1A" height="2" transform="matrix(0.4999 -0.8661 0.8661 0.4999 -20.9813 21.9308)" width="2" x="7.5" y="28.134"/><rect fill="#1A1A1A" height="2" transform="matrix(0.4999 -0.8661 0.8661 0.4999 -16.9812 21.9308)" width="2" x="9.5" y="24.67"/><rect fill="#1A1A1A" height="2" transform="matrix(0.4999 -0.8661 0.8661 0.4999 -18.4809 26.2612)" width="2" x="12.5" y="28.134"/><rect fill="#1A1A1A" height="2" transform="matrix(0.4999 -0.8661 0.8661 0.4999 -14.4808 26.2611)" width="2" x="14.5" y="24.67"/><rect fill="#1A1A1A" height="2" transform="matrix(0.4999 -0.8661 0.8661 0.4999 -15.9805 30.5916)" width="2" x="17.5" y="28.134"/><rect fill="#1A1A1A" height="2" transform="matrix(0.4999 -0.8661 0.8661 0.4999 -11.9803 30.5915)" width="2" x="19.5" y="24.67"/><rect fill="#1A1A1A" height="2" transform="matrix(0.4999 -0.8661 0.8661 0.4999 -13.4801 34.9219)" width="2" x="22.5" y="28.134"/><rect fill="#1A1A1A" height="2" transform="matrix(0.4999 -0.8661 0.8661 0.4999 -9.4799 34.9219)" width="2" x="24.5" y="24.67"/><path d="M27.399,10.168c-0.895-2.037-2.711-3.491-4.851-3.977C21.347,2.516,17.922,0,14,0    C9.349,0,5.511,3.546,5.047,8.075C2.19,8.533,0,11.016,0,14c0,3.309,2.691,6,6,6h5.026c0.914,1.207,2.348,2,3.974,2h4v-2h-4    c-1.654,0-3-1.346-3-3s1.346-3,3-3c0.552,0,1-0.447,1-1c0-2.757,2.243-5,5-5c2.139,0,4.037,1.355,4.723,3.372    c0.123,0.36,0.439,0.62,0.816,0.669C28.512,12.3,30,14.002,30,16c0,2.206-1.794,4-4,4h-1v2h1c3.309,0,6-2.691,6-6    C32,13.207,30.061,10.8,27.399,10.168z M14.059,12.089C11.75,12.53,10,14.564,10,17c0,0.342,0.035,0.677,0.101,1H6    c-2.206,0-4-1.794-4-4s1.794-4,4-4c0.552,0,1-0.447,1-1c0-3.859,3.14-7,7-7c2.762,0,5.2,1.608,6.331,4.032    C17.086,6.341,14.479,8.876,14.059,12.089z" fill="#1A1A1A"/><rect fill="#1A1A1A" height="2" width="2" x="21" y="20"/></g></g></svg>