<?xml version="1.0" encoding="UTF-8" standalone="no"?>
<svg
   enable-background="new 0 0 32 32"
   id="Filled_Outline"
   version="1.1"
   viewBox="0 0 32 32"
   xml:space="preserve"
   xmlns="http://www.w3.org/2000/svg"
   xmlns:svg="http://www.w3.org/2000/svg"><defs
     id="defs12" /><title
     id="title1" /><desc
     id="desc1" /><g
     id="g12"><path
       d="M8,19c-2.76,0-5-2.24-5-5s2.24-5,5-5c0-4.42,3.58-8,8-8c3.75,0,6.89,2.57,7.76,6.05   C26.71,7.42,29,9.95,29,13c0,3.31-2.69,6-6,6H8z"
       fill="#C9F9FB"
       id="path1" /><g
       id="g11"><g
         id="g10"><path
           d="M23,20h-2v-2h2c2.757,0,5-2.243,5-5c0-2.514-1.876-4.646-4.364-4.958c-0.41-0.051-0.746-0.349-0.846-0.75     C22.011,4.176,19.219,2,16,2c-3.86,0-7,3.14-7,7c0,0.552-0.448,1-1,1c-2.206,0-4,1.794-4,4s1.794,4,4,4h7v2H8     c-3.309,0-6-2.691-6-6c0-2.984,2.19-5.466,5.047-5.924C7.511,3.545,11.349,0,16,0c3.916,0,7.342,2.507,8.547,6.173     C27.698,6.882,30,9.706,30,13C30,16.86,26.859,20,23,20z"
           fill="#1A1A1A"
           id="path9" /><rect
           fill="#1A1A1A"
           height="2"
           width="2"
           x="17"
           y="18"
           id="rect10" /></g><g
         id="g3"
         transform="translate(3.91926e-4,1.7091274e-4)"><rect
           fill="#1a1a1a"
           height="2"
           transform="matrix(0.4999,-0.8661,0.8661,0.4999,-21.8476,22.431)"
           width="2"
           x="7.5"
           y="29.134001"
           id="rect1" /><rect
           fill="#1a1a1a"
           height="2"
           transform="matrix(0.4999,-0.8661,0.8661,0.4999,-17.8472,22.4309)"
           width="2"
           x="9.5"
           y="25.67"
           id="rect2" /><rect
           fill="#1a1a1a"
           height="2"
           transform="matrix(0.4999,-0.8661,0.8661,0.4999,-13.8469,22.4307)"
           width="2"
           x="11.5"
           y="22.205999"
           id="rect3" /></g><g
         id="g6"
         transform="translate(3.91926e-4,1.7091274e-4)"><rect
           fill="#1a1a1a"
           height="2"
           transform="matrix(0.4999,-0.8661,0.8661,0.4999,-19.3472,26.7614)"
           width="2"
           x="12.5"
           y="29.134001"
           id="rect4" /><rect
           fill="#1a1a1a"
           height="2"
           transform="matrix(0.4999,-0.8661,0.8661,0.4999,-15.3468,26.7612)"
           width="2"
           x="14.5"
           y="25.67"
           id="rect5" /><rect
           fill="#1a1a1a"
           height="2"
           transform="matrix(0.4999,-0.8661,0.8661,0.4999,-11.3465,26.761)"
           width="2"
           x="16.5"
           y="22.205999"
           id="rect6" /></g><g
         id="g9"
         transform="translate(3.91926e-4,1.7091274e-4)"><rect
           fill="#1a1a1a"
           height="2"
           transform="matrix(0.4999,-0.8661,0.8661,0.4999,-16.8468,31.0918)"
           width="2"
           x="17.5"
           y="29.134001"
           id="rect7" /><rect
           fill="#1a1a1a"
           height="2"
           transform="matrix(0.4999,-0.8661,0.8661,0.4999,-12.8464,31.0916)"
           width="2"
           x="19.5"
           y="25.67"
           id="rect8" /><rect
           fill="#1a1a1a"
           height="2"
           transform="matrix(0.4999,-0.8661,0.8661,0.4999,-8.8461,31.0914)"
           width="2"
           x="21.5"
           y="22.205999"
           id="rect9" /></g></g></g></svg>
