<?xml version="1.0" ?><svg enable-background="new 0 0 32 32" id="Filled_Outline" version="1.1" viewBox="0 0 32 32" xml:space="preserve" xmlns="http://www.w3.org/2000/svg" xmlns:xlink="http://www.w3.org/1999/xlink"><title/><desc/><g><path d="M8,21c-2.76,0-5-2.24-5-5s2.24-5,5-5c0-4.42,3.58-8,8-8c3.75,0,6.89,2.57,7.76,6.05   C26.71,9.42,29,11.95,29,15c0,3.31-2.69,6-6,6H8z" fill="#C9F9FB"/><g><rect fill="#1A1A1A" height="2" width="14" x="11" y="16"/><rect fill="#1A1A1A" height="2" width="15" x="6" y="24"/><g><path d="M23,22h-2v-2h2c2.757,0,5-2.243,5-5c0-2.514-1.876-4.646-4.365-4.958c-0.41-0.051-0.746-0.349-0.846-0.75     C22.011,6.176,19.219,4,16,4c-3.86,0-7,3.14-7,7c0,0.552-0.448,1-1,1c-2.206,0-4,1.794-4,4s1.794,4,4,4h7v2H8     c-3.309,0-6-2.691-6-6c0-2.984,2.19-5.466,5.047-5.924C7.511,5.545,11.349,2,16,2c3.917,0,7.342,2.507,8.547,6.173     C27.699,8.882,30,11.706,30,15C30,18.86,26.86,22,23,22z" fill="#1A1A1A"/><rect fill="#1A1A1A" height="2" width="2" x="17" y="20"/></g><rect fill="#1A1A1A" height="2" width="2" x="7" y="16"/><rect fill="#1A1A1A" height="2" width="2" x="2" y="24"/></g></g></svg>