<?xml version="1.0" ?><svg enable-background="new 0 0 32 32" id="Filled_Outline" version="1.1" viewBox="0 0 32 32" xml:space="preserve" xmlns="http://www.w3.org/2000/svg" xmlns:xlink="http://www.w3.org/1999/xlink"><title/><desc/><g><g><circle cx="17" cy="15" fill="#F2B035" r="8"/><path d="M5,31c-2.21,0-4-1.79-4-4s1.79-4,4-4c0-3.31,2.69-6,6-6c2.63,0,4.87,1.7,5.67,4.05    C19.11,21.37,21,23.47,21,26c0,2.76-2.24,5-5,5H5z" fill="#C9F9FB"/></g><g><path d="M26,15c0-4.962-4.037-9-9-9s-9,4.038-9,9c0,0.542,0.066,1.078,0.162,1.609    c-2.182,0.973-3.782,3.026-4.103,5.48C1.75,22.53,0,24.564,0,27c0,2.757,2.243,5,5,5h4v-2H5c-1.654,0-3-1.346-3-3s1.346-3,3-3    c0.553,0,1-0.448,1-1c0-2.757,2.243-5,5-5c2.139,0,4.037,1.355,4.724,3.372c0.122,0.36,0.438,0.62,0.816,0.669    C18.513,22.3,20,24.002,20,26c0,2.206-1.794,4-4,4h-1v2h1c3.309,0,6-2.691,6-6c0-1.105-0.313-2.143-0.844-3.041    C24.117,21.417,26,18.392,26,15z M19.818,21.396c-0.693-0.576-1.508-1.012-2.419-1.228C16.294,17.652,13.793,16,11,16    c-0.309,0-0.611,0.027-0.91,0.066C10.036,15.714,10,15.358,10,15c0-3.86,3.141-7,7-7s7,3.14,7,7    C24,17.794,22.361,20.275,19.818,21.396z" fill="#1A1A1A"/><rect fill="#1A1A1A" height="4" width="2" x="16"/><rect fill="#1A1A1A" height="4" transform="matrix(0.7071 -0.7071 0.7071 0.7071 -1.8198 7.2218)" width="2" x="6.808" y="3.808"/><rect fill="#1A1A1A" height="4" transform="matrix(0.7071 -0.7071 0.7071 0.7071 -9.435 25.6066)" width="2" x="25.192" y="22.193"/><rect fill="#1A1A1A" height="2" transform="matrix(0.7071 -0.7071 0.7071 0.7071 3.565 20.2218)" width="4" x="24.193" y="4.808"/><rect fill="#1A1A1A" height="2" width="4" x="2" y="14"/><rect fill="#1A1A1A" height="2" width="4" x="28" y="14"/><rect fill="#1A1A1A" height="2" width="2" x="11" y="30"/></g></g></svg>