<?xml version="1.0" ?><svg enable-background="new 0 0 32 32" id="Filled_Outline" version="1.1" viewBox="0 0 32 32" xml:space="preserve" xmlns="http://www.w3.org/2000/svg" xmlns:xlink="http://www.w3.org/1999/xlink"><title/><desc/><g><g><path d="M27,15c0,4.943-4.483,8.839-9.605,7.844c-3.119-0.606-5.633-3.12-6.239-6.239C10.161,11.483,14.057,7,19,7    v4c0,2.209,1.791,4,4,4H27z" fill="#FFF3AE"/><polygon fill="#FFF3AE" points="24,1 23,3 21,4 23,5 24,7 25,5 27,4 25,3   "/><path d="M5,31c-2.21,0-4-1.79-4-4s1.79-4,4-4c0-3.31,2.69-6,6-6c2.63,0,4.87,1.7,5.67,4.05    C19.11,21.37,21,23.47,21,26c0,2.76-2.24,5-5,5H5z" fill="#C9F9FB"/></g><g><path d="M27,14h-4c-1.654,0-3-1.346-3-3V7c0-0.552-0.447-1-1-1c-2.697,0-5.229,1.195-6.947,3.278    c-1.562,1.895-2.259,4.335-1.979,6.79c-3.124,0.416-5.607,2.894-6.016,6.021C1.75,22.53,0,24.564,0,27c0,2.757,2.243,5,5,5h4v-2H5    c-1.654,0-3-1.346-3-3s1.346-3,3-3c0.553,0,1-0.448,1-1c0-2.757,2.243-5,5-5c2.139,0,4.037,1.355,4.724,3.372    c0.122,0.36,0.438,0.62,0.816,0.669C18.513,22.3,20,24.002,20,26c0,2.206-1.794,4-4,4h-1v2h1c3.309,0,6-2.691,6-6    c0-0.836-0.191-1.629-0.507-2.359C25.283,22.55,28,19.056,28,15C28,14.448,27.553,14,27,14z M20.306,21.855    c-0.779-0.81-1.769-1.417-2.906-1.687c-0.959-2.182-2.968-3.711-5.307-4.079c-0.297-2,0.236-4.002,1.503-5.539    C14.717,9.19,16.285,8.317,18,8.071V11c0,2.757,2.243,5,5,5h2.929C25.506,18.931,23.248,21.297,20.306,21.855z" fill="#1A1A1A"/><path d="M20.553,4.895l1.702,0.851l0.851,1.702C23.275,7.786,23.621,8,24,8s0.725-0.214,0.895-0.553l0.851-1.702    l1.702-0.851C27.786,4.725,28,4.379,28,4s-0.214-0.725-0.553-0.895l-1.702-0.851l-0.851-1.702c-0.34-0.678-1.449-0.678-1.789,0    l-0.851,1.702l-1.702,0.851C20.214,3.275,20,3.621,20,4S20.214,4.725,20.553,4.895z M23.447,3.895    c0.193-0.097,0.351-0.254,0.447-0.447L24,3.236l0.105,0.211c0.097,0.193,0.254,0.351,0.447,0.447L24.764,4l-0.211,0.105    c-0.193,0.097-0.351,0.254-0.447,0.447L24,4.764l-0.105-0.211c-0.097-0.193-0.254-0.351-0.447-0.447L23.236,4L23.447,3.895z" fill="#1A1A1A"/><rect fill="#1A1A1A" height="2" width="2" x="11" y="30"/></g></g></svg>