<?xml version="1.0" encoding="UTF-8" standalone="no"?>
<svg
   enable-background="new 0 0 32 32"
   id="Filled_Outline"
   version="1.1"
   viewBox="0 0 32 32"
   xml:space="preserve"
   xmlns="http://www.w3.org/2000/svg"
   xmlns:svg="http://www.w3.org/2000/svg"><defs
     id="defs12" /><title
     id="title1" /><desc
     id="desc1" /><g
     id="g12"><path
       d="M8,19c-2.76,0-5-2.24-5-5s2.24-5,5-5c0-4.42,3.58-8,8-8c3.75,0,6.89,2.57,7.76,6.05   C26.71,7.42,29,9.95,29,13c0,3.31-2.69,6-6,6H8z"
       fill="#7CA7C6"
       id="path1" /><g
       id="g11"><g
         id="g3"
         transform="translate(-2)"><rect
           fill="#1a1a1a"
           height="2.0000293"
           transform="rotate(-60.007099)"
           width="2.0000293"
           x="-24.848122"
           y="17.961241"
           id="rect1"
           style="stroke-width:1.00001" /><rect
           fill="#1a1a1a"
           height="2.0000293"
           transform="rotate(-60.007099)"
           width="2.0000293"
           x="-20.848234"
           y="17.961836"
           id="rect2"
           style="stroke-width:1.00001" /><rect
           fill="#1a1a1a"
           height="2.0000293"
           transform="rotate(-60.007099)"
           width="2.0000293"
           x="-16.848312"
           y="17.962294"
           id="rect3"
           style="stroke-width:1.00001" /></g><g
         id="g6"
         transform="translate(-2)"><rect
           fill="#1a1a1a"
           height="2.0000293"
           transform="rotate(-60.007099)"
           width="2.0000293"
           x="-22.348621"
           y="22.291542"
           id="rect4"
           style="stroke-width:1.00001" /><rect
           fill="#1a1a1a"
           height="2.0000293"
           transform="rotate(-60.007099)"
           width="2.0000293"
           x="-18.348648"
           y="22.292086"
           id="rect5"
           style="stroke-width:1.00001" /><rect
           fill="#1a1a1a"
           height="2.0000293"
           transform="rotate(-60.007099)"
           width="2.0000293"
           x="-14.348725"
           y="22.292543"
           id="rect6"
           style="stroke-width:1.00001" /></g><g
         id="g9" /><g
         id="g10"><path
           d="M23,20h-2v-2h2c2.757,0,5-2.243,5-5c0-2.514-1.876-4.646-4.364-4.958c-0.41-0.051-0.746-0.349-0.846-0.75     C22.011,4.176,19.219,2,16,2c-3.859,0-7,3.14-7,7c0,0.552-0.447,1-1,1c-2.206,0-4,1.794-4,4s1.794,4,4,4h7v2H8     c-3.309,0-6-2.691-6-6c0-2.984,2.19-5.466,5.047-5.924C7.512,3.545,11.35,0,16,0c3.916,0,7.342,2.507,8.547,6.173     C27.698,6.882,30,9.706,30,13C30,16.86,26.859,20,23,20z"
           fill="#1A1A1A"
           id="path9" /><rect
           fill="#1A1A1A"
           height="2"
           width="2"
           x="17"
           y="18"
           id="rect10" /></g><circle
         cx="18"
         cy="26"
         fill="#C9F9FB"
         r="2"
         id="circle2"
         style="fill:#7ca7c6;fill-opacity:1" /><circle
         cx="26"
         cy="24"
         fill="#C9F9FB"
         r="2"
         id="circle3"
         style="fill:#7ca7c6;fill-opacity:1" /><path
         d="m 18,29 c -1.654,0 -3,-1.346 -3,-3 0,-1.654 1.346,-3 3,-3 1.654,0 3,1.346 3,3 0,1.654 -1.346,3 -3,3 z m 0,-4 c -0.552,0 -1,0.448 -1,1 0,0.552 0.448,1 1,1 0.552,0 1,-0.448 1,-1 0,-0.552 -0.448,-1 -1,-1 z"
         fill="#1a1a1a"
         id="path4" /><path
         d="m 26,27 c -1.654,0 -3,-1.346 -3,-3 0,-1.654 1.346,-3 3,-3 1.654,0 3,1.346 3,3 0,1.654 -1.346,3 -3,3 z m 0,-4 c -0.552,0 -1,0.448 -1,1 0,0.552 0.448,1 1,1 0.552,0 1,-0.448 1,-1 0,-0.552 -0.448,-1 -1,-1 z"
         fill="#1a1a1a"
         id="path5" /></g></g></svg>
