<?xml version="1.0" ?><svg enable-background="new 0 0 32 32" id="Filled_Outline" version="1.1" viewBox="0 0 32 32" xml:space="preserve" xmlns="http://www.w3.org/2000/svg" xmlns:xlink="http://www.w3.org/1999/xlink"><title/><desc/><g><g><path d="M8,19c-2.76,0-5-2.24-5-5s2.24-5,5-5c0-4.42,3.58-8,8-8c3.75,0,6.89,2.57,7.76,6.05    C26.71,7.42,29,9.95,29,13c0,3.31-2.69,6-6,6H8z" fill="#C9F9FB"/><circle cx="8" cy="25" fill="#C9F9FB" r="2"/><circle cx="16" cy="27" fill="#C9F9FB" r="2"/><circle cx="24" cy="25" fill="#C9F9FB" r="2"/></g><g><path d="M8,28c-1.654,0-3-1.346-3-3s1.346-3,3-3s3,1.346,3,3S9.654,28,8,28z M8,24c-0.552,0-1,0.448-1,1    s0.448,1,1,1s1-0.448,1-1S8.552,24,8,24z" fill="#1A1A1A"/><path d="M16,30c-1.654,0-3-1.346-3-3s1.346-3,3-3s3,1.346,3,3S17.654,30,16,30z M16,26c-0.552,0-1,0.448-1,1    s0.448,1,1,1s1-0.448,1-1S16.552,26,16,26z" fill="#1A1A1A"/><path d="M24,28c-1.654,0-3-1.346-3-3s1.346-3,3-3s3,1.346,3,3S25.654,28,24,28z M24,24c-0.552,0-1,0.448-1,1    s0.448,1,1,1s1-0.448,1-1S24.552,24,24,24z" fill="#1A1A1A"/><g><path d="M23,20h-2v-2h2c2.757,0,5-2.243,5-5c0-2.515-1.876-4.646-4.364-4.958c-0.41-0.052-0.746-0.35-0.846-0.75     C22.011,4.177,19.219,2,16,2c-3.859,0-7,3.141-7,7c0,0.553-0.447,1-1,1c-2.206,0-4,1.794-4,4s1.794,4,4,4h7v2H8     c-3.309,0-6-2.691-6-6c0-2.984,2.19-5.467,5.047-5.925C7.512,3.546,11.35,0,16,0c3.916,0,7.341,2.507,8.547,6.173     C27.698,6.882,30,9.706,30,13C30,16.859,26.859,20,23,20z" fill="#1A1A1A"/><rect fill="#1A1A1A" height="2" width="2" x="17" y="18"/></g></g></g></svg>