<?xml version="1.0" ?><svg enable-background="new 0 0 32 32" id="Filled_Outline" version="1.1" viewBox="0 0 32 32" xml:space="preserve" xmlns="http://www.w3.org/2000/svg" xmlns:xlink="http://www.w3.org/1999/xlink"><title/><desc/><g><g><path d="M13,17c3.314,0,6,2.686,6,6v1v0c0-1.657-1.343-3-3-3H0v-4H13z" fill="#7CA7C6"/><path d="M19,13H0V9h22c1.657,0,3-1.343,3-3v0v1C25,10.314,22.314,13,19,13z" fill="#C9F9FB"/><path d="M19,13c3.314,0,6,2.686,6,6v0v0c0-1.105-0.895-2-2-2H0v-4H19z" fill="#7CA7C6"/></g><g><path d="M22,10H0V8h22c1.103,0,2-0.897,2-2s-0.897-2-2-2s-2,0.897-2,2h-2c0-2.206,1.794-4,4-4s4,1.794,4,4    S24.206,10,22,10z" fill="#1A1A1A"/><path d="M29,18h-1v-2h1c0.552,0,1-0.449,1-1s-0.448-1-1-1H18v-2h11c1.654,0,3,1.346,3,3S30.654,18,29,18z" fill="#1A1A1A"/><path d="M23,22h-1v-2h1c0.552,0,1-0.449,1-1s-0.448-1-1-1H0v-2h23c1.654,0,3,1.346,3,3S24.654,22,23,22z" fill="#1A1A1A"/><path d="M16,28c-2.206,0-4-1.794-4-4h2c0,1.103,0.897,2,2,2s2-0.897,2-2s-0.897-2-2-2H4v-2h12c2.206,0,4,1.794,4,4    S18.206,28,16,28z" fill="#1A1A1A"/><rect fill="#1A1A1A" height="2" width="2" x="2" y="12"/><rect fill="#1A1A1A" height="2" width="10" x="6" y="12"/><rect fill="#1A1A1A" height="2" width="2" y="20"/></g></g></svg>