<?xml version="1.0" ?><svg enable-background="new 0 0 32 32" id="Filled_Outline" version="1.1" viewBox="0 0 32 32" xml:space="preserve" xmlns="http://www.w3.org/2000/svg" xmlns:xlink="http://www.w3.org/1999/xlink"><title/><desc/><g><g><path d="M8,19c-2.76,0-5-2.24-5-5s2.24-5,5-5c0-4.42,3.58-8,8-8c3.75,0,6.89,2.57,7.76,6.05    C26.71,7.42,29,9.95,29,13c0,3.31-2.69,6-6,6H8z" fill="#7CA7C6"/><polygon fill="#FFF3AE" points="21,13 13,13 11,23 14,23 12,31 21,19 18,19   "/></g><path d="M24.547,6.173C23.342,2.507,19.917,0,16,0c-4.651,0-8.489,3.545-8.953,8.076C4.19,8.534,2,11.016,2,14   c0,3.309,2.691,6,6,6h2.58l-0.561,2.804c-0.059,0.294,0.017,0.599,0.207,0.83C10.417,23.866,10.7,24,11,24h1.719l-1.689,6.757   c-0.115,0.462,0.111,0.941,0.541,1.146C11.708,31.969,11.854,32,12,32c0.307,0,0.606-0.141,0.8-0.4L21.5,20H23c3.86,0,7-3.14,7-7   C30,9.706,27.699,6.882,24.547,6.173z M14.171,26.438l0.799-3.196c0.075-0.299,0.007-0.615-0.182-0.858S14.308,22,14,22h-1.78   l1.6-8h5.562l-2.276,4.553c-0.155,0.31-0.138,0.678,0.044,0.973C17.332,19.82,17.653,20,18,20h1L14.171,26.438z M23,18h-2h-1.382   l2.276-4.553c0.155-0.31,0.138-0.678-0.044-0.973C21.668,12.18,21.347,12,21,12h-8c-0.477,0-0.887,0.336-0.98,0.804L10.98,18H8   c-2.206,0-4-1.794-4-4s1.794-4,4-4c0.552,0,1-0.448,1-1c0-3.86,3.14-7,7-7c3.219,0,6.011,2.176,6.79,5.292   c0.1,0.4,0.436,0.698,0.846,0.75C26.124,8.354,28,10.486,28,13C28,15.757,25.757,18,23,18z" fill="#1A1A1A"/></g></svg>