<?xml version="1.0" ?><svg enable-background="new 0 0 32 32" id="Filled_Outline" version="1.1" viewBox="0 0 32 32" xml:space="preserve" xmlns="http://www.w3.org/2000/svg" xmlns:xlink="http://www.w3.org/1999/xlink"><title/><desc/><g><g><path d="M6,19c-2.76,0-5-2.24-5-5s2.24-5,5-5c0-4.42,3.58-8,8-8c3.75,0,6.89,2.57,7.76,6.05    C24.71,7.42,27,9.95,27,13c0,3.31-2.69,6-6,6H6z" fill="#7CA7C6"/><path d="M15,21c-2.21,0-4-1.79-4-4s1.79-4,4-4c0-3.31,2.69-6,6-6c2.63,0,4.87,1.7,5.67,4.05    C29.11,11.37,31,13.47,31,16c0,2.76-2.24,5-5,5H15z" fill="#7CA7C6"/><polygon fill="#FFF3AE" points="26,17 19,17 18,24 20,24 19,31 26,21 24,21   "/></g><g><rect fill="#1A1A1A" height="2" transform="matrix(0.5 -0.866 0.866 0.5 -19.1507 16.3661)" width="6.393" x="1.402" y="23.768"/><rect fill="#1A1A1A" height="2" transform="matrix(0.4999 -0.8661 0.8661 0.4999 -25.3479 16.3684)" width="2" x="0.5" y="29.134"/><rect fill="#1A1A1A" height="2" transform="matrix(0.5 -0.866 0.866 0.5 -16.6507 20.6963)" width="6.393" x="6.402" y="23.768"/><rect fill="#1A1A1A" height="2" transform="matrix(0.4999 -0.8661 0.8661 0.4999 -22.8475 20.6988)" width="2" x="5.5" y="29.134"/><rect fill="#1A1A1A" height="2" transform="matrix(0.4999 -0.8661 0.8661 0.4999 -15.4352 25.029)" width="3.824" x="12.044" y="24.88"/><rect fill="#1A1A1A" height="2" transform="matrix(0.4999 -0.8661 0.8661 0.4999 -20.3471 25.0291)" width="2" x="10.5" y="29.134"/><path d="M32,16c0-2.793-1.939-5.2-4.601-5.832c-0.895-2.037-2.711-3.491-4.851-3.977C21.347,2.516,17.922,0,14,0    C9.349,0,5.511,3.546,5.047,8.075C2.19,8.533,0,11.016,0,14c0,3.309,2.691,6,6,6h5.026c0.914,1.207,2.348,2,3.974,2h2.276    l-0.266,1.858c-0.041,0.287,0.044,0.578,0.234,0.797S17.71,25,18,25h0.847l-0.837,5.858c-0.065,0.458,0.192,0.901,0.622,1.071    C18.752,31.978,18.877,32,19,32c0.319,0,0.628-0.153,0.82-0.427l6.72-9.601C29.596,21.699,32,19.126,32,16z M6,18    c-2.206,0-4-1.794-4-4s1.794-4,4-4c0.552,0,1-0.447,1-1c0-3.859,3.14-7,7-7c2.762,0,5.2,1.608,6.331,4.032    c-3.246,0.309-5.853,2.844-6.272,6.057C11.75,12.53,10,14.564,10,17c0,0.342,0.035,0.677,0.101,1H6z M23.149,21.525    C23.332,21.82,23.653,22,24,22h0.08l-3.498,4.996l0.408-2.854c0.041-0.287-0.044-0.578-0.234-0.797S20.29,23,20,23h-0.847l0.714-5    h4.515l-1.276,2.553C22.951,20.862,22.967,21.23,23.149,21.525z M26,20h-0.382l1.276-2.553c0.155-0.31,0.138-0.678-0.044-0.973    S26.347,16,26,16h-7c-0.498,0-0.919,0.366-0.99,0.858L17.561,20H15c-1.654,0-3-1.346-3-3s1.346-3,3-3c0.552,0,1-0.447,1-1    c0-2.757,2.243-5,5-5c2.139,0,4.037,1.355,4.723,3.372c0.123,0.36,0.439,0.62,0.816,0.669C28.512,12.3,30,14.002,30,16    C30,18.206,28.206,20,26,20z" fill="#1A1A1A"/></g></g></svg>