<?xml version="1.0" encoding="UTF-8" standalone="no"?>
<svg
   enable-background="new 0 0 32 32"
   id="Filled_Outline"
   version="1.1"
   viewBox="0 0 32 32"
   xml:space="preserve"
   xmlns="http://www.w3.org/2000/svg"
   xmlns:svg="http://www.w3.org/2000/svg"><defs
     id="defs12" /><title
     id="title1" /><desc
     id="desc1" /><g
     id="g12"
     transform="translate(0,4)"><path
       d="M 8,19 C 5.24,19 3,16.76 3,14 3,11.24 5.24,9 8,9 8,4.58 11.58,1 16,1 19.75,1 22.89,3.57 23.76,7.05 26.71,7.42 29,9.95 29,13 c 0,3.31 -2.69,6 -6,6 z"
       fill="#c9f9fb"
       id="path1" /><g
       id="g11"><g
         id="g10"><path
           d="m 23,20 h -2 v -2 h 2 c 2.757,0 5,-2.243 5,-5 C 28,10.486 26.124,8.354 23.636,8.042 23.226,7.991 22.89,7.693 22.79,7.292 22.011,4.176 19.219,2 16,2 12.14,2 9,5.14 9,9 c 0,0.552 -0.448,1 -1,1 -2.206,0 -4,1.794 -4,4 0,2.206 1.794,4 4,4 h 7 v 2 H 8 C 4.691,20 2,17.309 2,14 2,11.016 4.19,8.534 7.047,8.076 7.511,3.545 11.349,0 16,0 19.916,0 23.342,2.507 24.547,6.173 27.698,6.882 30,9.706 30,13 c 0,3.86 -3.141,7 -7,7 z"
           fill="#1a1a1a"
           id="path9" /><rect
           fill="#1a1a1a"
           height="2"
           width="2"
           x="17"
           y="18"
           id="rect10" /></g></g></g></svg>
